<svg width="15" height="9" viewBox="0 0 15 9" fill="none" xmlns="http://www.w3.org/2000/svg">
<path d="M14.2617 1.12381C14.0624 0.92462 13.7922 0.812721 13.5105 0.812721C13.2287 0.812721 12.9585 0.92462 12.7593 1.12381L7.49992 6.38318L2.24054 1.12381C2.04015 0.930263 1.77176 0.82317 1.49318 0.82559C1.2146 0.828011 0.948107 0.939752 0.751111 1.13675C0.554115 1.33374 0.442374 1.60023 0.439953 1.87882C0.437532 2.1574 0.544626 2.42579 0.738169 2.62618L6.74873 8.63674C6.94798 8.83593 7.21818 8.94783 7.49992 8.94783C7.78166 8.94783 8.05186 8.83593 8.25111 8.63674L14.2617 2.62618C14.4609 2.42693 14.5728 2.15673 14.5728 1.87499C14.5728 1.59326 14.4609 1.32306 14.2617 1.12381Z" fill="white"/>
</svg>
