<svg width="96" height="96" viewBox="0 0 96 96" fill="none" xmlns="http://www.w3.org/2000/svg">
<path d="M0 0L48.2476 0.164299L96 48V96L0 0Z" fill="#0491FB"/>
<path d="M44.4162 30.2737L42.6415 28.499L46.9435 24.197L42.096 19.3494L37.794 23.6515L36.0124 21.8699L45.9768 11.9055L47.7584 13.6871L43.6359 17.8096L48.4834 22.6571L52.6059 18.5346L54.3806 20.3093L44.4162 30.2737ZM61.3964 26.8279C62.8419 28.2734 63.5164 29.887 63.4197 31.6686C63.3276 33.4548 62.4782 35.1512 60.8716 36.7578C59.265 38.3645 57.5686 39.2184 55.7824 39.3197C54.0008 39.4164 52.3849 38.7396 50.9348 37.2895C49.4755 35.8302 48.7919 34.2074 48.8839 32.4213C48.9806 30.6397 49.8346 28.9433 51.4458 27.332C53.0525 25.7254 54.7489 24.876 56.5351 24.784C58.3258 24.6965 59.9463 25.3778 61.3964 26.8279ZM59.8151 28.4093C58.9266 27.5208 57.8908 27.1433 56.7077 27.2768C55.5292 27.4149 54.3829 28.041 53.2688 29.155C52.1502 30.2737 51.5195 31.42 51.3768 32.5939C51.2387 33.7724 51.6185 34.8105 52.5161 35.7082C53.4 36.5921 54.4289 36.9627 55.6028 36.82C56.7859 36.6772 57.9345 36.0489 59.0486 34.9348C60.1627 33.8207 60.7887 32.6745 60.9268 31.4959C61.0696 30.322 60.699 29.2931 59.8151 28.4093ZM65.8435 48.5798L64.2828 50.1404L57.9299 43.7874L67.8943 33.823L69.6759 35.6046L61.2721 44.0084L65.8435 48.5798ZM76.1669 42.0956L79.9027 45.8314C81.3851 47.3138 82.1032 48.8974 82.0572 50.5823C82.0204 52.2672 81.2193 53.8923 79.6541 55.4575C78.0567 57.0549 76.4086 57.8835 74.7099 57.9434C73.0204 58.0032 71.4299 57.2874 69.9383 55.7958L66.2025 52.06L76.1669 42.0956ZM76.4086 45.4171L69.524 52.3017L71.2434 54.0212C72.2378 55.0155 73.3035 55.4828 74.4406 55.4229C75.5777 55.3631 76.7009 54.7784 77.8104 53.669C78.8968 52.5825 79.4654 51.4662 79.516 50.3199C79.5713 49.1782 79.1086 48.1171 78.128 47.1365L76.4086 45.4171Z" fill="white"/>
</svg>
