<svg width="50" height="50" viewBox="0 0 50 50" fill="none" xmlns="http://www.w3.org/2000/svg">
<path d="M49.2464 31.0476C45.9075 44.4406 32.3426 52.5913 18.948 49.2515C5.55902 45.9126 -2.59168 32.3468 0.748713 18.9549C4.08618 5.56048 17.6511 -2.59084 31.0415 0.748085C44.4351 4.08702 52.5853 17.6543 49.246 31.0479L49.2463 31.0476H49.2464Z" fill="#F7931A"/>
<path d="M36.0211 21.4381C36.5187 18.1111 33.9858 16.3228 30.5222 15.1297L31.6458 10.6231L28.9025 9.93951L27.8087 14.3275C27.0875 14.1476 26.3468 13.9781 25.6107 13.8101L26.7124 9.39317L23.9708 8.70959L22.8466 13.2148C22.2498 13.0789 21.6636 12.9446 21.0949 12.8031L21.0981 12.7889L17.3149 11.8442L16.5852 14.7743C16.5852 14.7743 18.6205 15.2408 18.5776 15.2695C19.6885 15.5468 19.8894 16.2822 19.856 16.8651L18.5761 21.9992C18.6526 22.0186 18.7519 22.0467 18.8614 22.0907C18.7698 22.068 18.6724 22.0432 18.5714 22.019L16.7774 29.2112C16.6416 29.5487 16.297 30.0552 15.5203 29.8629C15.5478 29.9027 13.5264 29.3653 13.5264 29.3653L12.1644 32.5055L15.7344 33.3955C16.3986 33.562 17.0494 33.7363 17.6903 33.9002L16.5551 38.4585L19.2953 39.1421L20.4195 34.6321C21.1681 34.8353 21.8945 35.0228 22.6057 35.1995L21.4853 39.6882L24.2288 40.3718L25.3639 35.822C30.0418 36.7073 33.5593 36.3503 35.0398 32.1191C36.2329 28.7125 34.9805 26.7476 32.5194 25.4662C34.3119 25.0528 35.6621 23.8738 36.0221 21.4384L36.0212 21.4378L36.0211 21.4381ZM29.7532 30.2273C28.9054 33.6339 23.1697 31.7924 21.3101 31.3306L22.8165 25.2916C24.676 25.7558 30.6393 26.6745 29.7533 30.2273H29.7532ZM30.6016 21.3887C29.8282 24.4874 25.0543 22.9131 23.5057 22.5271L24.8715 17.0501C26.4201 17.4361 31.4073 18.1566 30.6019 21.3887H30.6016Z" fill="white"/>
</svg>
