<svg width="18" height="17" viewBox="0 0 18 17" fill="none" xmlns="http://www.w3.org/2000/svg">
<path d="M5.88794 0.821674C5.96036 0.700312 6.07784 0.612802 6.21453 0.578395C6.35122 0.543989 6.49592 0.565504 6.61681 0.638208C6.7377 0.710913 6.82487 0.82885 6.85914 0.966076C6.89341 1.1033 6.87198 1.24857 6.79956 1.36994L4.09444 5.89578H13.9056L11.1994 1.36994C11.127 1.24857 11.1055 1.1033 11.1398 0.966076C11.1741 0.82885 11.2612 0.710913 11.3821 0.638208C11.503 0.565504 11.6477 0.543989 11.7844 0.578395C11.9211 0.612802 12.0386 0.700312 12.111 0.821674L15.1444 5.89578H16.9688C17.1096 5.89578 17.2448 5.95197 17.3444 6.05199C17.444 6.152 17.5 6.28766 17.5 6.42911V8.56243C17.5 8.70387 17.444 8.83953 17.3444 8.93955C17.2448 9.03957 17.1096 9.09576 16.9688 9.09576H16.4375V14.4291C16.4375 14.9948 16.2136 15.5375 15.8151 15.9375C15.4166 16.3376 14.8761 16.5624 14.3125 16.5624H3.6875C3.12391 16.5624 2.58341 16.3376 2.1849 15.9375C1.78638 15.5375 1.5625 14.9948 1.5625 14.4291V9.09576H1.03125C0.890354 9.09576 0.755228 9.03957 0.6556 8.93955C0.555971 8.83953 0.5 8.70387 0.5 8.56243V6.42911C0.5 6.28766 0.555971 6.152 0.6556 6.05199C0.755228 5.95197 0.890354 5.89578 1.03125 5.89578H2.85556L5.88688 0.821674H5.88794ZM4.21875 10.6957C4.21875 10.5543 4.16278 10.4186 4.06315 10.3186C3.96352 10.2186 3.8284 10.1624 3.6875 10.1624C3.5466 10.1624 3.41148 10.2186 3.31185 10.3186C3.21222 10.4186 3.15625 10.5543 3.15625 10.6957V13.8957C3.15625 14.0372 3.21222 14.1728 3.31185 14.2728C3.41148 14.3729 3.5466 14.4291 3.6875 14.4291C3.8284 14.4291 3.96352 14.3729 4.06315 14.2728C4.16278 14.1728 4.21875 14.0372 4.21875 13.8957V10.6957ZM6.875 10.6957C6.875 10.5543 6.81903 10.4186 6.7194 10.3186C6.61977 10.2186 6.48465 10.1624 6.34375 10.1624C6.20285 10.1624 6.06773 10.2186 5.9681 10.3186C5.86847 10.4186 5.8125 10.5543 5.8125 10.6957V13.8957C5.8125 14.0372 5.86847 14.1728 5.9681 14.2728C6.06773 14.3729 6.20285 14.4291 6.34375 14.4291C6.48465 14.4291 6.61977 14.3729 6.7194 14.2728C6.81903 14.1728 6.875 14.0372 6.875 13.8957V10.6957ZM9.53125 10.6957C9.53125 10.5543 9.47528 10.4186 9.37565 10.3186C9.27602 10.2186 9.1409 10.1624 9 10.1624C8.8591 10.1624 8.72398 10.2186 8.62435 10.3186C8.52472 10.4186 8.46875 10.5543 8.46875 10.6957V13.8957C8.46875 14.0372 8.52472 14.1728 8.62435 14.2728C8.72398 14.3729 8.8591 14.4291 9 14.4291C9.1409 14.4291 9.27602 14.3729 9.37565 14.2728C9.47528 14.1728 9.53125 14.0372 9.53125 13.8957V10.6957ZM12.1875 10.6957C12.1875 10.5543 12.1315 10.4186 12.0319 10.3186C11.9323 10.2186 11.7971 10.1624 11.6562 10.1624C11.5154 10.1624 11.3802 10.2186 11.2806 10.3186C11.181 10.4186 11.125 10.5543 11.125 10.6957V13.8957C11.125 14.0372 11.181 14.1728 11.2806 14.2728C11.3802 14.3729 11.5154 14.4291 11.6562 14.4291C11.7971 14.4291 11.9323 14.3729 12.0319 14.2728C12.1315 14.1728 12.1875 14.0372 12.1875 13.8957V10.6957ZM14.8438 10.6957C14.8438 10.5543 14.7878 10.4186 14.6882 10.3186C14.5885 10.2186 14.4534 10.1624 14.3125 10.1624C14.1716 10.1624 14.0365 10.2186 13.9368 10.3186C13.8372 10.4186 13.7812 10.5543 13.7812 10.6957V13.8957C13.7812 14.0372 13.8372 14.1728 13.9368 14.2728C14.0365 14.3729 14.1716 14.4291 14.3125 14.4291C14.4534 14.4291 14.5885 14.3729 14.6882 14.2728C14.7878 14.1728 14.8438 14.0372 14.8438 13.8957V10.6957Z" fill="white"/>
</svg>
