<svg width="24" height="23" viewBox="0 0 24 23" fill="none" xmlns="http://www.w3.org/2000/svg">
<path d="M7.6065 0.864515C7.70874 0.693848 7.87459 0.570787 8.06757 0.522402C8.26054 0.474018 8.46483 0.504274 8.6355 0.606515C8.80617 0.708756 8.92923 0.874607 8.97761 1.06758C9.026 1.26056 8.99574 1.46485 8.8935 1.63552L5.0745 8.00002H18.9255L15.105 1.63552C15.0028 1.46485 14.9725 1.26056 15.0209 1.06758C15.0693 0.874607 15.1923 0.708756 15.363 0.606515C15.5337 0.504274 15.738 0.474018 15.9309 0.522402C16.1239 0.570787 16.2898 0.693848 16.392 0.864515L20.6745 8.00002H23.25C23.4489 8.00002 23.6397 8.07903 23.7803 8.21969C23.921 8.36034 24 8.5511 24 8.75002V11.75C24 11.9489 23.921 12.1397 23.7803 12.2803C23.6397 12.421 23.4489 12.5 23.25 12.5H22.5V20C22.5 20.7957 22.1839 21.5587 21.6213 22.1213C21.0587 22.6839 20.2956 23 19.5 23H4.5C3.70435 23 2.94129 22.6839 2.37868 22.1213C1.81607 21.5587 1.5 20.7957 1.5 20V12.5H0.75C0.551088 12.5 0.360322 12.421 0.21967 12.2803C0.0790176 12.1397 0 11.9489 0 11.75V8.75002C0 8.5511 0.0790176 8.36034 0.21967 8.21969C0.360322 8.07903 0.551088 8.00002 0.75 8.00002H3.3255L7.605 0.864515H7.6065ZM5.25 14.75C5.25 14.5511 5.17098 14.3603 5.03033 14.2197C4.88968 14.079 4.69891 14 4.5 14C4.30109 14 4.11032 14.079 3.96967 14.2197C3.82902 14.3603 3.75 14.5511 3.75 14.75V19.25C3.75 19.4489 3.82902 19.6397 3.96967 19.7803C4.11032 19.921 4.30109 20 4.5 20C4.69891 20 4.88968 19.921 5.03033 19.7803C5.17098 19.6397 5.25 19.4489 5.25 19.25V14.75ZM9 14.75C9 14.5511 8.92098 14.3603 8.78033 14.2197C8.63968 14.079 8.44891 14 8.25 14C8.05109 14 7.86032 14.079 7.71967 14.2197C7.57902 14.3603 7.5 14.5511 7.5 14.75V19.25C7.5 19.4489 7.57902 19.6397 7.71967 19.7803C7.86032 19.921 8.05109 20 8.25 20C8.44891 20 8.63968 19.921 8.78033 19.7803C8.92098 19.6397 9 19.4489 9 19.25V14.75ZM12.75 14.75C12.75 14.5511 12.671 14.3603 12.5303 14.2197C12.3897 14.079 12.1989 14 12 14C11.8011 14 11.6103 14.079 11.4697 14.2197C11.329 14.3603 11.25 14.5511 11.25 14.75V19.25C11.25 19.4489 11.329 19.6397 11.4697 19.7803C11.6103 19.921 11.8011 20 12 20C12.1989 20 12.3897 19.921 12.5303 19.7803C12.671 19.6397 12.75 19.4489 12.75 19.25V14.75ZM16.5 14.75C16.5 14.5511 16.421 14.3603 16.2803 14.2197C16.1397 14.079 15.9489 14 15.75 14C15.5511 14 15.3603 14.079 15.2197 14.2197C15.079 14.3603 15 14.5511 15 14.75V19.25C15 19.4489 15.079 19.6397 15.2197 19.7803C15.3603 19.921 15.5511 20 15.75 20C15.9489 20 16.1397 19.921 16.2803 19.7803C16.421 19.6397 16.5 19.4489 16.5 19.25V14.75ZM20.25 14.75C20.25 14.5511 20.171 14.3603 20.0303 14.2197C19.8897 14.079 19.6989 14 19.5 14C19.3011 14 19.1103 14.079 18.9697 14.2197C18.829 14.3603 18.75 14.5511 18.75 14.75V19.25C18.75 19.4489 18.829 19.6397 18.9697 19.7803C19.1103 19.921 19.3011 20 19.5 20C19.6989 20 19.8897 19.921 20.0303 19.7803C20.171 19.6397 20.25 19.4489 20.25 19.25V14.75Z" fill="#8B949E"/>
</svg>
