<svg width="216" height="19" viewBox="0 0 216 19" fill="none" xmlns="http://www.w3.org/2000/svg">
<path d="M15.837 11.5C15.387 12.4667 14.6703 13.2417 13.687 13.825C12.7203 14.3917 11.5953 14.675 10.312 14.675C8.54535 14.675 7.09535 14.1583 5.96201 13.125C4.84535 12.075 4.28701 10.7833 4.28701 9.25C4.28701 7.71667 4.84535 6.43333 5.96201 5.4C7.09535 4.35 8.54535 3.825 10.312 3.825C11.5953 3.825 12.7203 4.11667 13.687 4.7C14.6703 5.26667 15.387 6.03333 15.837 7L19.837 6.075C19.1537 4.325 17.9703 2.9 16.287 1.8C14.6203 0.683333 12.6287 0.124999 10.312 0.124999C7.29535 0.124999 4.85368 1.03333 2.98701 2.85C1.12035 4.65 0.187012 6.78333 0.187012 9.25C0.187012 10.45 0.420345 11.6 0.887012 12.7C1.37035 13.7833 2.03701 14.75 2.88701 15.6C3.73701 16.45 4.80368 17.125 6.08701 17.625C7.38701 18.125 8.79535 18.375 10.312 18.375C12.6453 18.375 14.6453 17.825 16.312 16.725C17.9787 15.625 19.1537 14.1917 19.837 12.425L15.837 11.5ZM35.3423 18L26.5923 12V18H22.5923V0.499999H33.6173C35.734 0.499999 37.4256 1.025 38.6923 2.075C39.959 3.10833 40.5923 4.5 40.5923 6.25C40.5923 8 39.959 9.4 38.6923 10.45C37.4256 11.4833 35.734 12 33.6173 12H32.8423L41.5923 18H35.3423ZM33.6173 8.4C34.5173 8.4 35.2173 8.21667 35.7173 7.85C36.234 7.48333 36.4923 6.95 36.4923 6.25C36.4923 5.55 36.234 5.01667 35.7173 4.65C35.2173 4.28333 34.5173 4.1 33.6173 4.1H26.5923V8.4H33.6173ZM53.0874 18H49.0874V12.5L40.8374 0.499999H45.4624L51.2874 8.95L57.0874 0.499999H61.3374L53.0874 12.5V18ZM67.0952 12.5V18H63.0952V0.499999H73.6202C75.8535 0.499999 77.6119 1.04167 78.8952 2.125C80.1952 3.19167 80.8452 4.65 80.8452 6.5C80.8452 8.35 80.1952 9.81667 78.8952 10.9C77.6119 11.9667 75.8535 12.5 73.6202 12.5H67.0952ZM73.6202 8.85C74.6035 8.85 75.3702 8.63333 75.9202 8.2C76.4702 7.76667 76.7452 7.2 76.7452 6.5C76.7452 5.8 76.4702 5.23333 75.9202 4.8C75.3702 4.36667 74.6035 4.15 73.6202 4.15H67.0952V8.85H73.6202ZM82.481 4.25V0.499999H101.231V4.25H93.856V18H89.856V4.25H82.481ZM119.932 2.85C118.065 1.03333 115.624 0.124999 112.607 0.124999C109.59 0.124999 107.149 1.03333 105.282 2.85C103.415 4.65 102.482 6.78333 102.482 9.25C102.482 10.45 102.715 11.6 103.182 12.7C103.665 13.7833 104.332 14.75 105.182 15.6C106.032 16.45 107.099 17.125 108.382 17.625C109.682 18.125 111.09 18.375 112.607 18.375C114.124 18.375 115.524 18.125 116.807 17.625C118.107 17.125 119.182 16.45 120.032 15.6C120.882 14.75 121.54 13.7833 122.007 12.7C122.49 11.6 122.732 10.45 122.732 9.25C122.732 6.78333 121.799 4.65 119.932 2.85ZM108.257 5.4C109.39 4.35 110.84 3.825 112.607 3.825C114.374 3.825 115.815 4.35 116.932 5.4C118.065 6.43333 118.632 7.71667 118.632 9.25C118.632 10.7833 118.065 12.075 116.932 13.125C115.815 14.1583 114.374 14.675 112.607 14.675C110.84 14.675 109.39 14.1583 108.257 13.125C107.14 12.075 106.582 10.7833 106.582 9.25C106.582 7.71667 107.14 6.43333 108.257 5.4Z" fill="white"/>
<path d="M127.848 18H123.723L132.498 0.499999H137.473L146.098 18H141.723L139.873 14.225H129.748L127.848 18ZM131.498 10.725H138.148L134.848 4.05L131.498 10.725ZM160.586 18L151.836 12V18H147.836V0.499999H158.861C160.978 0.499999 162.67 1.025 163.936 2.075C165.203 3.10833 165.836 4.5 165.836 6.25C165.836 8 165.203 9.4 163.936 10.45C162.67 11.4833 160.978 12 158.861 12H158.086L166.836 18H160.586ZM158.861 8.4C159.761 8.4 160.461 8.21667 160.961 7.85C161.478 7.48333 161.736 6.95 161.736 6.25C161.736 5.55 161.478 5.01667 160.961 4.65C160.461 4.28333 159.761 4.1 158.861 4.1H151.836V8.4H158.861ZM179.833 18H168.833V0.499999H178.958C181.141 0.499999 182.849 0.941666 184.083 1.825C185.333 2.70833 185.958 3.86667 185.958 5.3C185.958 6.66667 185.299 7.75 183.983 8.55C185.966 9.4 186.958 10.7333 186.958 12.55C186.958 14.25 186.291 15.5833 184.958 16.55C183.641 17.5167 181.933 18 179.833 18ZM178.958 3.95H172.833V7.4H178.958C180.874 7.4 181.833 6.825 181.833 5.675C181.833 4.525 180.874 3.95 178.958 3.95ZM179.833 10.8H172.833V14.55H179.833C180.783 14.55 181.516 14.3833 182.033 14.05C182.566 13.7 182.833 13.2417 182.833 12.675C182.833 12.1083 182.566 11.6583 182.033 11.325C181.516 10.975 180.783 10.8 179.833 10.8ZM193.829 18V0.499999H189.829V18H193.829ZM196.324 4.25V0.499999H215.074V4.25H207.699V18H203.699V4.25H196.324Z" fill="#0491FB"/>
</svg>
