<svg width="18" height="18" viewBox="0 0 18 18" fill="none" xmlns="http://www.w3.org/2000/svg">
<path d="M16 0H2C1.46957 0 0.960859 0.210714 0.585786 0.585786C0.210714 0.960859 0 1.46957 0 2V16C0 16.5304 0.210714 17.0391 0.585786 17.4142C0.960859 17.7893 1.46957 18 2 18H6H12H16C16.5304 18 17.0391 17.7893 17.4142 17.4142C17.7893 17.0391 18 16.5304 18 16V2C18 1.46957 17.7893 0.960859 17.4142 0.585786C17.0391 0.210714 16.5304 0 16 0ZM9 4C10.727 4 12 5.272 12 7C12 8.728 10.727 10 9 10C7.274 10 6 8.728 6 7C6 5.272 7.274 4 9 4ZM4.177 14C4.735 12.277 6.673 11 9 11C11.327 11 13.266 12.277 13.823 14H4.177Z" fill="#8B949E"/>
</svg>
